<svg xmlns="http://www.w3.org/2000/svg" version="1.1" x="0px" y="0px" width="100px" height="29px" viewBox="-313.8 393.999 100 29" enable-background="new -313.8 393.999 100 29" xml:space="preserve"><path fill="#005495" d="M-263.373 399.023v3.836h-6.834v18.584h-4.316V402.98h-6.834v-3.957H-263.373zM-261.574 421.562h4.316v-11.27 -11.27h-4.316v11.27V421.562zM-234.719 421.562h-4.436l-2.279-5.514h-7.552l-2.398 5.514h-4.316l9.592-22.78h1.917L-234.719 421.562zM-213.738 421.562h-4.437l-2.278-5.514h-7.553l-2.277 5.514h-4.317l9.592-22.78h1.918L-213.738 421.562zM-242.992 412.33l-2.397-5.633 -2.277 5.633H-242.992zM-222.011 412.33l-2.276-5.633 -2.278 5.633H-222.011z"/><path fill="#FFFFFF" d="M-297.183 423.001c1.919 0 3.717-0.84 4.917-2.038l5.273-5.274c1.2-1.2 2.039-2.998 2.039-4.796v-16.665h-16.544c-1.918 0-3.716 0.84-4.916 2.037l-5.275 5.395c-1.2 1.2-2.039 2.999-2.039 4.796v16.546H-297.183z"/><linearGradient id="SVGID_1_" gradientUnits="userSpaceOnUse" x1="-299.3743" y1="-383.5874" x2="-286.5007" y2="-370.7138" gradientTransform="matrix(1 0 0 -1 0 25)"><stop offset="0.1" stop-color="#9DDAF7"/><stop offset="0.9" stop-color="#049BD8"/></linearGradient><path fill="url(#SVGID_1_)" d="M-299.581 395.666c-2.997 0-5.395 2.398-5.395 5.395v1.799h11.39v11.269h1.798c2.997 0 5.395-2.396 5.395-5.395v-13.068L-299.581 395.666 -299.581 395.666z"/><linearGradient id="SVGID_2_" gradientUnits="userSpaceOnUse" x1="-312.2688" y1="-393.1465" x2="-288.4099" y2="-393.1465" gradientTransform="matrix(1 0 0 -1 0 25)"><stop offset="0" stop-color="#10AEE5"/><stop offset="0.1633" stop-color="#0FA8E0"/><stop offset="0.377" stop-color="#0C98D1"/><stop offset="0.6186" stop-color="#077DB8"/><stop offset="0.8791" stop-color="#015795"/><stop offset="0.9" stop-color="#005492"/></linearGradient><path fill="url(#SVGID_2_)" d="M-288.551 414.85c-0.959 0.478-2.158 0.839-3.357 0.839h-14.506l-5.755 5.755h15.106c1.439 0 2.877-0.6 3.837-1.68l4.915-4.914H-288.551z"/><linearGradient id="SVGID_3_" gradientUnits="userSpaceOnUse" x1="-308.8806" y1="-396.562" x2="-308.8806" y2="-372.7046" gradientTransform="matrix(1 0 0 -1 0 25)"><stop offset="0" stop-color="#0980BC"/><stop offset="0.4011" stop-color="#056EAA"/><stop offset="0.85" stop-color="#005492"/></linearGradient><path fill="url(#SVGID_3_)" d="M-305.575 397.824c-0.599 0.958-0.838 2.157-0.838 3.355v14.628l-5.755 5.755v-15.107c-0.12-1.438 0.48-2.876 1.56-3.836l4.915-4.914L-305.575 397.824z"/></svg>