<svg xmlns="http://www.w3.org/2000/svg" width="256" height="256" viewBox="0 0 256 256">
  <title></title>
  <g>
    <path d="M212.76,99a7.44,7.44,0,0,0-10.51,0l-83.91,83.91L93.87,158.41a7.43,7.43,0,0,0-10.51,10.51l29.73,29.72a7.41,7.41,0,0,0,10.5,0l89.17-89.16A7.44,7.44,0,0,0,212.76,99Z"/>
    <path d="M183.73,217.17c0,3-2.55,5.94-4.79,5.94H58.9c-2.63,0-5.95-3.32-5.95-5.94V38.83c0-2.62,3.32-5.94,5.95-5.94h71.33v53.5h53.5v21.3L195.62,95.9V83.42a6,6,0,0,0-1.16-3.53L146.9,23.42A5.93,5.93,0,0,0,142.12,21H58.9c-9.2,0-17.84,8.64-17.84,17.83V217.17c0,9.19,8.64,17.83,17.84,17.83h120c9.2,0,16.68-8.59,16.68-17.83V136.42l-11.89,12ZM174.49,74.5H142.12V36.42Z"/>
  </g>
</svg>
